<svg xmlns="http://www.w3.org/2000/svg" xmlns:xlink="http://www.w3.org/1999/xlink"><symbol id="checkmark" viewBox="0 0 24 24"><path fill="none" stroke="currentColor" stroke-width="3" stroke-linecap="round" stroke-linejoin="round" d="M20 6L9 17l-5-5"/></symbol><use xlink:href="#checkmark" width="24" height="24"/><view id="checkmark-view" viewBox="0 0 24 24"/><symbol id="hide" viewBox="0 0 24 24"><path fill="none" stroke="currentColor" stroke-width="3" stroke-linecap="round" stroke-linejoin="round" d="M17.94 17.94A10.07 10.07 0 0112 20c-7 0-11-8-11-8a18.45 18.45 0 015.06-5.94M9.9 4.24A9.12 9.12 0 0112 4c7 0 11 8 11 8a18.5 18.5 0 01-2.16 3.19m-6.72-1.07a3 3 0 11-4.24-4.24M1 1l22 22"/></symbol><use xlink:href="#hide" y="24" width="24" height="24"/><view id="hide-view" viewBox="0 24 24 24"/><symbol id="remove" viewBox="0 0 24 24"><path fill="none" d="M20 4L4 20M4 4l16 16" stroke="#000" stroke-width="3" stroke-linecap="round" stroke-linejoin="round"/></symbol><use xlink:href="#remove" y="48" width="24" height="24"/><view id="remove-view" viewBox="0 48 24 24"/><symbol id="show" viewBox="0 0 24 24"><path fill="none" stroke="currentColor" stroke-width="3" stroke-linecap="round" stroke-linejoin="round" d="M1 12s4-8 11-8 11 8 11 8-4 8-11 8-11-8-11-8z"/><circle fill="none" stroke="currentColor" stroke-width="3" stroke-linecap="round" stroke-linejoin="round" cx="12" cy="12" r="3"/></symbol><use xlink:href="#show" y="72" width="24" height="24"/><view id="show-view" viewBox="0 72 24 24"/><symbol id="trash" viewBox="0 0 24 24"><path fill="none" stroke="currentColor" stroke-width="3" stroke-linecap="round" stroke-linejoin="round" d="M3 6h18m-2 0v14a2 2 0 01-2 2H7a2 2 0 01-2-2V6m3 0V4a2 2 0 012-2h4a2 2 0 012 2v2m-6 5v6m4-6v6"/></symbol><use xlink:href="#trash" y="96" width="24" height="24"/><view id="trash-view" viewBox="0 96 24 24"/><symbol id="logo" viewBox="0 0 666.667 666.667"><defs><clipPath clipPathUnits="userSpaceOnUse" id="a"><path d="M0 500h500V0H0z"/></clipPath></defs><g clip-path="url(#a)" transform="matrix(1.33333 0 0 -1.33333 0 666.667)"><path d="M469.196 320.605a3.022 3.022 0 01-3.091 5.192l-63.573-36.704 50.99 30.941a3.02 3.02 0 011.033 4.121 3.021 3.021 0 01-4.111 1.078l-102.911-59.415h32.391l89.272 54.787m-11.364-54.073a3.021 3.021 0 01-4.102 1.062l-3.076-1.776h7.486a3.023 3.023 0 01-.308.714m10.543 18.349a3.02 3.02 0 01-3.08 5.199l-15.832-9.141 11.667 7.054a3.022 3.022 0 01-3.072 5.202l-47.418-27.377h26.381l31.354 19.063m-6.596-11.86a3.017 3.017 0 011.451 2.584 3.023 3.023 0 01-4.531 2.614l-21.479-12.401h12.718l11.841 7.203m-10.559 56.808a3.02 3.02 0 01-3.094 5.19l-38.468-22.209 40.537 24.487a3.019 3.019 0 011.04 4.123 3.02 3.02 0 01-4.111 1.08l-79.803-46.073a4972733.4 4972733.4 0 0094.859 57.808 3.025 3.025 0 011.025 4.122 3.02 3.02 0 01-4.108 1.076l-40.726-23.514 25.134 15.138a3.018 3.018 0 011.045 4.122 3.022 3.022 0 01-4.113 1.082l-49.88-28.798 59.271 35.811a3.024 3.024 0 011.459 2.589 2.99 2.99 0 01-.422 1.534 3.02 3.02 0 01-4.11 1.08l-128.609-74.251 128.99 79.032a3.019 3.019 0 011.018 4.121 3.02 3.02 0 01-4.107 1.071l-13.217-7.631.616.37a3.018 3.018 0 011.052 4.123 3.021 3.021 0 01-4.115 1.085l-114.787-66.272 126.279 77.313a3.015 3.015 0 011.444 2.579 3.022 3.022 0 01-4.531 2.614l-127.503-73.614a10975289.4 10975289.4 0 00108.449 66.365 3.02 3.02 0 01-3.088 5.194l-113.722-65.658 115.396 70.537a3.02 3.02 0 01-3.086 5.194l-101.016-58.322 87.033 52.879a3.02 3.02 0 01-3.081 5.198l-107.474-62.05 101.706 62.033a3.017 3.017 0 011.025 4.12c-.659 1.113-1.922 1.626-3.127 1.412a3.007 3.007 0 011.122 2.32 3.02 3.02 0 01-4.531 2.613L206.029 307.586l55.716 35.018a3.018 3.018 0 01.981 4.117 3.022 3.022 0 01-4.099 1.057l-34.923-20.164 26.917 16.762a3.024 3.024 0 01.993 4.12 3.02 3.02 0 01-4.101 1.062l-54.926-31.712 48.803 30.803a3.02 3.02 0 01-3.124 5.171l-70.399-40.644c32.776 21.036 68.926 44.241 68.926 44.241a3.021 3.021 0 01-3.142 5.159l-58.165-33.582 63.435 40.217a3.02 3.02 0 01.967 4.115 3.02 3.02 0 01-4.095 1.053L162.8 332.236c29.701 19.166 63.002 40.658 63.002 40.658a3.016 3.016 0 01.94 4.112 3.011 3.011 0 01-2.534 1.441c.225.432.351.911.351 1.4a3.019 3.019 0 01-3.739 2.926l4.246 2.623a3.027 3.027 0 011.005 4.12 3.021 3.021 0 01-4.105 1.067l-77.899-44.976 63.122 40.869a3.014 3.014 0 011.38 2.538 3.021 3.021 0 01-4.533 2.613l-36.191-20.895 43.338 27.398a3.021 3.021 0 01-3.126 5.17l-5.251-3.032c.46.548.72 1.232.72 1.937a3.02 3.02 0 01-4.533 2.612l-61.861-35.715 59.044 38.33a3.018 3.018 0 01.93 4.111 3.022 3.022 0 01-4.087 1.039l-42.783-24.701 30.045 19.306a3.019 3.019 0 01.947 4.114 3.02 3.02 0 01-4.09 1.044l-23.361-13.487 16.789 10.862a3.019 3.019 0 01.937 4.113 3.023 3.023 0 01-4.088 1.041s-21.802-12.587-40.336-23.29l29.122 19.747a3.019 3.019 0 01.865 4.105 3.021 3.021 0 01-4.07 1.012l-44.508-25.696 28.557 20.481a3.024 3.024 0 01.778 4.094 3.022 3.022 0 01-4.049.979l-24.872-14.36a59890.06 59890.06 0 0111.656 9.296 3.02 3.02 0 01-3.395 4.978l-30.838-17.804a3.022 3.022 0 01-1.106-4.128 3.012 3.012 0 012.513-1.497l-14.107-11.25a3.02 3.02 0 01-1.136-2.364 3.021 3.021 0 014.532-2.615l6.74 3.892-28.557-20.481a3.02 3.02 0 01-.778-4.094 3.022 3.022 0 014.05-.978l25.116 14.5-29.131-19.75a3.02 3.02 0 01-.863-4.104 3.02 3.02 0 014.07-1.013l9.465 5.465-16.812-10.877a3.022 3.022 0 013.152-5.154l16.568 9.566-30.001-19.278a3.015 3.015 0 01-.947-4.114 3.02 3.02 0 014.09-1.043l52.642 30.391-59.073-38.347a3.022 3.022 0 013.157-5.151l4.09 2.361a3.025 3.025 0 01-.722-1.937 3.021 3.021 0 014.533-2.613l32.962 19.03-43.325-27.39a3.02 3.02 0 013.124-5.171l63.831 36.854-63.119-40.865a3.022 3.022 0 013.153-5.153l6.447 3.723-.649-.401a3.02 3.02 0 01-1.005-4.12 2.996 2.996 0 011.682-1.314l-3.032-1.854a3.023 3.023 0 013.088-5.195s36.014 20.794 68.977 39.824a4504052.44 4504052.44 0 00-63.012-40.663 3.02 3.02 0 01.393-5.29h2.492c.089.041.177.085.263.135l52.411 30.259-47.943-30.394h13.597l47.287 27.301-42.536-27.301h15.029l10.673 6.161-9.763-6.161h58.488l15.747 9.091c-4.846-2.954-9.845-6.003-14.906-9.091h33.622l15.613 9.014-14.747-9.014h17.993l2.299 1.327-2.169-1.327h18.453l7.503 4.333c-2.349-1.44-4.71-2.884-7.076-4.333h117.541l104.024 64.011m14.362-28.965a3.019 3.019 0 011.014 4.121 3.022 3.022 0 01-4.107 1.071l-10.776-6.223 8.916 5.383a3.02 3.02 0 01-3.072 5.202l-77.251-44.6h28.242l57.034 35.046" fill="#005bbb"/><path d="M104.489 200.776a3.02 3.02 0 013.088-5.193s62.381 36.017 121.651 70.235h-18.453l-106.286-65.042m-44.672 65.042h-2.492a3.021 3.021 0 012.492 0m-10.729-9.801a3.02 3.02 0 013.129-5.168l25.928 14.969H64.548l-15.46-9.801m42.897-51.732a3.018 3.018 0 01-1.023-4.121 3.021 3.021 0 014.108-1.073l115.575 66.727h-17.993L91.985 204.285m255.548 61.533l-5.451-3.147 5.114 3.147H229.655L110.471 192.85a3.021 3.021 0 01-1.02-4.122 3.01 3.01 0 013.499-1.324l-5.263-3.153a3.018 3.018 0 01-1.051-4.123 3.021 3.021 0 014.114-1.085l135.87 78.444-128.955-79.01a3.02 3.02 0 01-1.018-4.121 3.021 3.021 0 014.108-1.071l66.095 38.159-59.239-35.791a3.021 3.021 0 013.073-5.202l29.439 16.995-25.206-15.179a3.022 3.022 0 013.069-5.205l103.581 59.802-94.829-57.792a3.02 3.02 0 013.082-5.196l36.087 20.834-40.507-24.469a3.016 3.016 0 01-1.039-4.122 3.021 3.021 0 014.112-1.08l116.066 67.011c-51.055-31.418-109.157-67.17-109.157-67.17a3.023 3.023 0 013.096-5.191l55.05 31.785-51.007-30.953a3.015 3.015 0 01-1.033-4.122 3.021 3.021 0 014.11-1.077L274.2 208.023l-95.317-58.497a3.017 3.017 0 01-1.016-4.121 3.023 3.023 0 014.107-1.07l10.313 5.953-9.02-5.444a3.021 3.021 0 013.073-5.202l88.161 50.9-89.578-55.044a3.021 3.021 0 013.094-5.19l13.563 7.831-11.633-7.034a3.016 3.016 0 01-1.039-4.122 3.022 3.022 0 014.112-1.08l44.512 25.701c-8.134-4.947-35.126-21.358-35.126-21.358a3.017 3.017 0 01-1.029-4.121 3.02 3.02 0 014.109-1.076s22.156 12.792 27.384 15.809l-25.187-15.319a3.02 3.02 0 01-1.029-4.123 3.022 3.022 0 014.111-1.074l87.552 50.548-72.315-44.999a3.022 3.022 0 013.107-5.183s25.365 14.646 34.329 19.82l-33.263-20.458a3.016 3.016 0 01-1.438-2.576 3.022 3.022 0 014.531-2.614l84.566 48.822-70.872-44.711a3.018 3.018 0 01-.974-4.117 3.024 3.024 0 014.097-1.056l67.804 39.148-45.712-29.005a3.02 3.02 0 01-.966-4.116 3.021 3.021 0 014.096-1.051l71.118 41.06-30.904-20.585a3.019 3.019 0 01-.892-4.108 3.02 3.02 0 014.077-1.023l90.508 52.253a3.021 3.021 0 01-3.023 5.233l-8.805-5.084 30.926 20.6a3.02 3.02 0 01-3.187 5.131l-27.693-15.99 45.698 28.997a3.021 3.021 0 01-3.13 5.167l-59.526-34.368 70.825 44.683a3.018 3.018 0 01.973 4.116 3.02 3.02 0 01-4.096 1.056l-29.917-17.273 33.28 20.469a3.02 3.02 0 011.013 4.121 3.023 3.023 0 01-4.107 1.069l-63.951-36.922 72.343 45.016a3.02 3.02 0 011.303 3.406h-7.486l-14.099-8.14 13.383 8.14H437.22l-3.958-2.285 3.759 2.285H410.64l-34.629-19.993 32.537 19.993h-28.242l-6.449-3.723 6.067 3.723zM56.5 248.875a3.02 3.02 0 01-.948-4.114 3.022 3.022 0 014.091-1.045l38.282 22.102H82.896L56.5 248.875m14.851-36.006a3.02 3.02 0 01-1.026-4.121 3.022 3.022 0 014.109-1.075l90.888 52.474-87.046-52.887a3.017 3.017 0 01-1.031-4.121 3.02 3.02 0 014.11-1.077l110.431 63.756h-33.622l-86.813-52.949m-11.577 28.295a3.021 3.021 0 013.123-5.172l30.839 17.805-26.906-16.755a3.02 3.02 0 01-.995-4.119 3.02 3.02 0 014.102-1.063l52.199 30.137-55.723-35.02a3.022 3.022 0 013.118-5.174s8.572 4.947 9.074 5.238a3.022 3.022 0 01-.622-1.799 3.021 3.021 0 014.533-2.613l74.807 43.189H98.835l-39.061-24.654" fill="#ffd500"/></g></symbol><use xlink:href="#logo" y="120" width="666.667" height="666.667"/><view id="logo-view" viewBox="0 120 666.667 666.667"/><symbol id="asterisk" viewBox="0 0 24 24"><path d="M2.04 11.869a1.973 1.973 0 01-1.39-2.53l.388-1.2a1.976 1.976 0 012.564-1.254c2.867 1.067 5.02 2.008 6.454 2.826-.31-2.963-.521-5.3-.633-7.013C9.35 1.584 10.245.671 11.36.671h1.172c1.129 0 2.036.933 1.96 2.06-.135 1.991-.378 4.307-.734 6.944 1.993-1.004 4.214-1.947 6.668-2.83 1.044-.376 2.182.202 2.524 1.258l.437 1.35c.338 1.045-.23 2.173-1.287 2.477a43.855 43.855 0 01-7.143 1.447c1.215 1.057 2.841 2.795 4.88 5.213a1.978 1.978 0 01-.38 2.888l-1.005.713c-.89.63-2.124.432-2.736-.472-1.14-1.684-2.421-3.75-3.843-6.2-1.316 2.507-2.515 4.58-3.596 6.212-.6.906-1.828 1.09-2.71.454l-.98-.707a1.986 1.986 0 01-.376-2.877c2.115-2.555 3.676-4.296 4.683-5.224-2.375-.459-4.66-.963-6.854-1.508z"/></symbol><use xlink:href="#asterisk" y="786.667" width="24" height="24"/><view id="asterisk-view" viewBox="0 786.667 24 24"/><symbol id="checked" viewBox="0 0 24 24"><path d="M5.692 10.644l3.58 3.758 9.036-9.489 2.226 2.34L9.272 19.088l-5.806-6.103 2.226-2.34z"/></symbol><use xlink:href="#checked" y="810.667" width="24" height="24"/><view id="checked-view" viewBox="0 810.667 24 24"/><symbol id="add" viewBox="0 0 24 24"><path fill="none" d="M12 4v16m-8-8h16" stroke="#000" stroke-width="3" stroke-linecap="round" stroke-linejoin="round"/></symbol><use xlink:href="#add" y="834.667" width="24" height="24"/><view id="add-view" viewBox="0 834.667 24 24"/><symbol id="calendar" viewBox="0 0 24 24"><g fill="none" stroke="currentColor" stroke-width="2.25" stroke-linecap="round" stroke-linejoin="round"><rect x="3" y="4" width="18" height="18" rx="2" ry="2"/><path d="M16 2v4M8 2v4m-5 4h18"/></g></symbol><use xlink:href="#calendar" y="858.667" width="24" height="24"/><view id="calendar-view" viewBox="0 858.667 24 24"/><symbol id="circle" viewBox="0 0 24 24"><circle cx="12" cy="12" r="10" fill="none" stroke="currentColor" stroke-width="2.25" stroke-linecap="round"/></symbol><use xlink:href="#circle" y="882.667" width="24" height="24"/><view id="circle-view" viewBox="0 882.667 24 24"/><symbol id="close" viewBox="0 0 24 24"><path fill="none" d="M20 4L4 20M4 4l16 16" stroke="#000" stroke-width="2" stroke-linecap="round" stroke-linejoin="round"/></symbol><use xlink:href="#close" y="906.667" width="24" height="24"/><view id="close-view" viewBox="0 906.667 24 24"/><symbol id="drop" viewBox="0 0 24 24"><path fill="none" d="M4 8l8 8 8-8" stroke="#000" stroke-width="3" stroke-linecap="round" stroke-linejoin="round"/></symbol><use xlink:href="#drop" y="930.667" width="24" height="24"/><view id="drop-view" viewBox="0 930.667 24 24"/><symbol id="drupal" viewBox="0 0 24 24"><path d="M15.792 5.064C14.088 3.408 12.504 1.824 12.024 0c-.48 1.824-2.064 3.408-3.768 5.064-2.496 2.496-5.352 5.352-5.352 9.648-.144 5.016 3.888 9.192 8.904 9.288 5.016.096 9.216-3.888 9.288-8.904v-.384c.048-4.296-2.808-7.152-5.304-9.648zM7.56 15.528a5.498 5.498 0 00-.696 1.128c-.048.048-.096.12-.168.12h-.048c-.216 0-.432-.384-.432-.384-.048-.096-.12-.216-.168-.312L6 15.984c-.552-1.2-.096-2.904-.096-2.904.216-.816.6-1.632 1.08-2.328.312-.432.648-.864.984-1.296l.432.432 2.04 2.064c.096.096.096.216 0 .312L8.328 14.64l-.768.888zm4.56 5.952c-1.728 0-3.168-1.416-3.12-3.168 0-.768.312-1.512.768-2.064.648-.768 1.464-1.56 2.376-2.592 1.032 1.128 1.728 1.848 2.376 2.736.048.048.096.12.12.216.336.528.552 1.128.552 1.776.072 1.728-1.344 3.096-3.072 3.096zm5.904-5.016a.497.497 0 01-.312.264h-.048a.913.913 0 01-.312-.216c-.552-.816-1.176-1.608-1.848-2.28l-.816-.864-2.76-2.856a35.757 35.757 0 01-1.632-1.68c0-.048-.048-.048-.048-.048a1.218 1.218 0 01-.216-.432v-.096c-.096-.48.096-.96.432-1.296.528-.528 1.08-1.08 1.608-1.632.552.6 1.176 1.2 1.776 1.824 1.2 1.128 2.28 2.376 3.288 3.72.816 1.176 1.248 2.496 1.248 3.936-.096.504-.168 1.104-.36 1.656z"/></symbol><use xlink:href="#drupal" y="954.667" width="24" height="24"/><view id="drupal-view" viewBox="0 954.667 24 24"/><symbol id="gin" viewBox="0 0 24 24"><path d="M12 4.92c.6.696 1.272 1.344 1.92 1.992 2.4 2.4 4.56 4.56 4.56 7.776v.408c-.096 3.528-3 6.384-6.528 6.384h-.12c-1.728-.048-3.384-.744-4.56-1.992-1.176-1.296-1.824-2.952-1.776-4.728v-.048c0-3.216 2.256-5.4 4.56-7.776A49.835 49.835 0 0012 4.92zM12 0c-.48 1.824-2.088 3.432-3.792 5.04-2.472 2.52-5.328 5.4-5.328 9.648-.12 5.04 3.912 9.216 8.904 9.312H12c4.92 0 9-3.96 9.12-8.904v-.384c0-4.296-2.88-7.128-5.352-9.648C14.088 3.432 12.48 1.824 12 0z"/></symbol><use xlink:href="#gin" y="978.667" width="24" height="24"/><view id="gin-view" viewBox="0 978.667 24 24"/><symbol id="handle" viewBox="0 0 24 24"><path fill="none" d="M8 20l8-8-8-8" stroke="#000" stroke-width="3" stroke-linecap="round" stroke-linejoin="round"/></symbol><use xlink:href="#handle" y="1002.667" width="24" height="24"/><view id="handle-view" viewBox="0 1002.667 24 24"/><symbol id="more" viewBox="0 0 24 24"><path d="M12 13a1 1 0 100-2 1 1 0 000 2zm0-9a1 1 0 100-2 1 1 0 000 2zm0 18a1 1 0 100-2 1 1 0 000 2z" fill="none" stroke="#000" stroke-width="2" stroke-linecap="round" stroke-linejoin="round"/></symbol><use xlink:href="#more" y="1026.667" width="24" height="24"/><view id="more-view" viewBox="0 1026.667 24 24"/><symbol id="grid" viewBox="0 0 24 24"><path fill="none" stroke="currentColor" stroke-width="3" stroke-linecap="round" stroke-linejoin="round" d="M3 3h7v7H3zm11 0h7v7h-7zm0 11h7v7h-7zM3 14h7v7H3z"/></symbol><use xlink:href="#grid" y="1050.667" width="24" height="24"/><view id="grid-view" viewBox="0 1050.667 24 24"/><symbol id="list" viewBox="0 0 24 24"><path fill="none" stroke="currentColor" stroke-width="3" stroke-linecap="round" stroke-linejoin="round" d="M8 6h13M8 12h13M8 18h13M3 6h.01M3 12h.01M3 18h.01"/></symbol><use xlink:href="#list" y="1074.667" width="24" height="24"/><view id="list-view" viewBox="0 1074.667 24 24"/><symbol id="error" viewBox="0 0 24 24"><circle fill="none" stroke="currentColor" stroke-width="2" stroke-linecap="round" stroke-linejoin="round" cx="12" cy="12" r="10"/><path fill="none" stroke="currentColor" stroke-width="2" stroke-linecap="round" stroke-linejoin="round" d="M4.93 4.93l14.14 14.14"/></symbol><use xlink:href="#error" y="1098.667" width="24" height="24"/><view id="error-view" viewBox="0 1098.667 24 24"/><symbol id="info" viewBox="0 0 24 24"><path fill="none" stroke="currentColor" stroke-width="2" stroke-linecap="round" stroke-linejoin="round" d="M21 15a2 2 0 01-2 2H7l-4 4V5a2 2 0 012-2h14a2 2 0 012 2z"/></symbol><use xlink:href="#info" y="1122.667" width="24" height="24"/><view id="info-view" viewBox="0 1122.667 24 24"/><symbol id="question" viewBox="0 0 24 24"><circle fill="none" stroke="currentColor" stroke-width="2" stroke-linecap="round" stroke-linejoin="round" cx="12" cy="12" r="10"/><path fill="none" stroke="currentColor" stroke-width="2" stroke-linecap="round" stroke-linejoin="round" d="M9.09 9a3 3 0 015.83 1c0 2-3 3-3 3"/><path fill="none" stroke="currentColor" stroke-width="3" stroke-linecap="round" stroke-linejoin="round" d="M12 17h.01"/></symbol><use xlink:href="#question" y="1146.667" width="24" height="24"/><view id="question-view" viewBox="0 1146.667 24 24"/><symbol id="status" viewBox="0 0 24 24"><path fill="none" stroke="currentColor" stroke-width="2" stroke-linecap="round" stroke-linejoin="round" d="M22 11.08V12a10 10 0 11-5.93-9.14"/><path fill="none" stroke="currentColor" stroke-width="2" stroke-linecap="round" stroke-linejoin="round" d="M22 4L12 14.01l-3-3"/></symbol><use xlink:href="#status" y="1170.667" width="24" height="24"/><view id="status-view" viewBox="0 1170.667 24 24"/><symbol id="warning" viewBox="0 0 24 24"><path fill="none" stroke="currentColor" stroke-width="2" stroke-linecap="round" stroke-linejoin="round" d="M7.86 2h8.28L22 7.86v8.28L16.14 22H7.86L2 16.14V7.86L7.86 2zM12 8v4"/><path fill="none" stroke="currentColor" stroke-width="3" stroke-linecap="round" stroke-linejoin="round" d="M12 16h.01"/></symbol><use xlink:href="#warning" y="1194.667" width="24" height="24"/><view id="warning-view" viewBox="0 1194.667 24 24"/><symbol id="first" viewBox="0 0 24 24"><path fill="none" stroke="currentColor" stroke-width="3" stroke-linecap="round" stroke-linejoin="round" d="M11 17l-5-5 5-5m7 10l-5-5 5-5"/></symbol><use xlink:href="#first" y="1218.667" width="24" height="24"/><view id="first-view" viewBox="0 1218.667 24 24"/><symbol id="last" viewBox="0 0 24 24"><path fill="none" stroke="currentColor" stroke-width="3" stroke-linecap="round" stroke-linejoin="round" d="M13 17l5-5-5-5M6 17l5-5-5-5"/></symbol><use xlink:href="#last" y="1242.667" width="24" height="24"/><view id="last-view" viewBox="0 1242.667 24 24"/><symbol id="next" viewBox="0 0 24 24"><path fill="none" stroke="currentColor" stroke-width="3" stroke-linecap="round" stroke-linejoin="round" d="M9 18l6-6-6-6"/></symbol><use xlink:href="#next" y="1266.667" width="24" height="24"/><view id="next-view" viewBox="0 1266.667 24 24"/><symbol id="prev" viewBox="0 0 24 24"><path fill="none" stroke="currentColor" stroke-width="3" stroke-linecap="round" stroke-linejoin="round" d="M15 18l-6-6 6-6"/></symbol><use xlink:href="#prev" y="1290.667" width="24" height="24"/><view id="prev-view" viewBox="0 1290.667 24 24"/><symbol id="clock" viewBox="0 0 24 24"><circle fill="none" stroke="currentColor" stroke-width="2" stroke-linecap="round" stroke-linejoin="round" cx="12" cy="12" r="10"/><path fill="none" stroke="currentColor" stroke-width="2" stroke-linecap="round" stroke-linejoin="round" d="M12 6v6l4 2"/></symbol><use xlink:href="#clock" y="1314.667" width="24" height="24"/><view id="clock-view" viewBox="0 1314.667 24 24"/><symbol id="database" viewBox="0 0 24 24"><ellipse fill="none" stroke="currentColor" stroke-width="2" stroke-linecap="round" stroke-linejoin="round" cx="12" cy="5" rx="9" ry="3"/><path fill="none" stroke="currentColor" stroke-width="2" stroke-linecap="round" stroke-linejoin="round" d="M21 12c0 1.66-4 3-9 3s-9-1.34-9-3"/><path fill="none" stroke="currentColor" stroke-width="2" stroke-linecap="round" stroke-linejoin="round" d="M3 5v14c0 1.66 4 3 9 3s9-1.34 9-3V5"/></symbol><use xlink:href="#database" y="1338.667" width="24" height="24"/><view id="database-view" viewBox="0 1338.667 24 24"/><symbol id="php" viewBox="0 0 24 24"><path fill="none" stroke="currentColor" stroke-width="2" stroke-linecap="round" stroke-linejoin="round" d="M13 2H6a2 2 0 00-2 2v16a2 2 0 002 2h12a2 2 0 002-2V9z"/><path fill="none" stroke="currentColor" stroke-width="2" stroke-linecap="round" stroke-linejoin="round" d="M13 2v7h7"/></symbol><use xlink:href="#php" y="1362.667" width="24" height="24"/><view id="php-view" viewBox="0 1362.667 24 24"/><symbol id="server" viewBox="0 0 24 24"><rect fill="none" stroke="currentColor" stroke-width="2" stroke-linecap="round" stroke-linejoin="round" x="2" y="2" width="20" height="8" rx="2" ry="2"/><rect fill="none" stroke="currentColor" stroke-width="2" stroke-linecap="round" stroke-linejoin="round" x="2" y="14" width="20" height="8" rx="2" ry="2"/><path fill="none" stroke="currentColor" stroke-width="2" stroke-linecap="round" stroke-linejoin="round" d="M6 6h.01M6 18h.01"/></symbol><use xlink:href="#server" y="1386.667" width="24" height="24"/><view id="server-view" viewBox="0 1386.667 24 24"/><symbol id="drag-dots" viewBox="0 0 24 24"><path d="M7 13a1 1 0 100-2 1 1 0 000 2zm0-9a1 1 0 100-2 1 1 0 000 2zm0 18a1 1 0 100-2 1 1 0 000 2zm9-9a1 1 0 100-2 1 1 0 000 2zm0-9a1 1 0 100-2 1 1 0 000 2zm0 18a1 1 0 100-2 1 1 0 000 2z" fill="none" stroke="currentColor" stroke-width="2" stroke-linecap="round" stroke-linejoin="round"/></symbol><use xlink:href="#drag-dots" y="1410.667" width="24" height="24"/><view id="drag-dots-view" viewBox="0 1410.667 24 24"/><symbol id="drag" viewBox="0 0 24 24"><path fill="none" stroke="currentColor" stroke-width="2" stroke-linecap="round" stroke-linejoin="round" d="M5 9l-3 3 3 3M9 5l3-3 3 3m0 14l-3 3-3-3M19 9l3 3-3 3M2 12h20M12 2v20"/></symbol><use xlink:href="#drag" y="1434.667" width="24" height="24"/><view id="drag-view" viewBox="0 1434.667 24 24"/><symbol id="sort-asc" viewBox="0 0 24 24"><path fill="none" d="M12 21V3m-7 7l7-7 7 7" stroke="#000" stroke-width="3" stroke-linecap="round" stroke-linejoin="round"/></symbol><use xlink:href="#sort-asc" y="1458.667" width="24" height="24"/><view id="sort-asc-view" viewBox="0 1458.667 24 24"/><symbol id="sort-desc" viewBox="0 0 24 24"><path fill="none" d="M12 3v18m7-7l-7 7-7-7" stroke="#000" stroke-width="3" stroke-linecap="round" stroke-linejoin="round"/></symbol><use xlink:href="#sort-desc" y="1482.667" width="24" height="24"/><view id="sort-desc-view" viewBox="0 1482.667 24 24"/><symbol id="sort" viewBox="0 0 24 24"><path fill="none" d="M3 12h14M3 6h18M3 18h10" stroke="#000" stroke-width="3" stroke-linecap="round" stroke-linejoin="round"/></symbol><use xlink:href="#sort" y="1506.667" width="24" height="24"/><view id="sort-view" viewBox="0 1506.667 24 24"/><symbol id="backtosite" viewBox="0 0 24 24"><path fill="none" d="M21 12H3m6 6l-6-6 6-6" stroke="#000" stroke-width="2" stroke-linecap="round" stroke-linejoin="round"/></symbol><use xlink:href="#backtosite" y="1530.667" width="24" height="24"/><view id="backtosite-view" viewBox="0 1530.667 24 24"/><symbol id="devel" viewBox="0 0 24 24"><path fill="none" clip-rule="evenodd" d="M4.63 13.01c-1.695-1.787-2.114-4.52-1.04-6.78l2.839 2.995a1.156 1.156 0 001.696 0l1.64-1.675a1.3 1.3 0 00.352-.896c0-.337-.126-.659-.352-.896l-2.88-3.04c2.116-1.22 4.734-.86 6.484.888 1.75 1.749 2.233 4.489 1.196 6.785l7.073 7.462c.232.245.362.576.362.922 0 .345-.13.677-.362.92l-.873.923C20.534 20.863 19.22 22 18.892 22c-.327 0-.641-.137-.873-.382l-7.067-7.461c-2.125 1.07-4.658.61-6.323-1.147z" stroke="#000" stroke-width="2" stroke-linecap="round" stroke-linejoin="round"/></symbol><use xlink:href="#devel" y="1554.667" width="24" height="24"/><view id="devel-view" viewBox="0 1554.667 24 24"/><symbol id="rebuild-cache" viewBox="0 0 24 24"><path fill="none" stroke="currentColor" stroke-width="2.25" stroke-linecap="round" stroke-linejoin="round" d="M23 4v6h-6"/><path fill="none" stroke="currentColor" stroke-width="2.25" stroke-linecap="round" stroke-linejoin="round" d="M20.49 15a9 9 0 11-2.12-9.36L23 10"/></symbol><use xlink:href="#rebuild-cache" y="1578.667" width="24" height="24"/><view id="rebuild-cache-view" viewBox="0 1578.667 24 24"/><symbol id="responsive-preview" viewBox="0 0 24 24"><rect fill="none" stroke="currentColor" stroke-width="2.25" stroke-linecap="round" stroke-linejoin="round" x="5" y="2" width="14" height="20" rx="2" ry="2"/><path fill="none" stroke="currentColor" stroke-width="2.25" stroke-linecap="round" stroke-linejoin="round" d="M12 18h.01"/></symbol><use xlink:href="#responsive-preview" y="1602.667" width="24" height="24"/><view id="responsive-preview-view" viewBox="0 1602.667 24 24"/><symbol id="search" viewBox="0 0 24 24"><path fill="none" d="M10 17a7 7 0 100-14 7 7 0 000 14z" stroke="#000" stroke-width="2.25" stroke-linecap="round" stroke-linejoin="round"/><path fill="none" d="M21 21l-4.35-4.35" stroke="#000" stroke-width="2.5" stroke-linecap="round" stroke-linejoin="round"/></symbol><use xlink:href="#search" y="1626.667" width="24" height="24"/><view id="search-view" viewBox="0 1626.667 24 24"/><symbol id="shortcut-filled" viewBox="0 0 24 24"><path fill="currentColor" stroke="currentColor" stroke-width="2" stroke-linecap="round" stroke-linejoin="round" d="M12 2l3.09 6.26L22 9.27l-5 4.87 1.18 6.88L12 17.77l-6.18 3.25L7 14.14 2 9.27l6.91-1.01L12 2z"/></symbol><use xlink:href="#shortcut-filled" y="1650.667" width="24" height="24"/><view id="shortcut-filled-view" viewBox="0 1650.667 24 24"/><symbol id="shortcut" viewBox="0 0 24 24"><path fill="none" stroke="currentColor" stroke-width="2" stroke-linecap="round" stroke-linejoin="round" d="M12 2l3.09 6.26L22 9.27l-5 4.87 1.18 6.88L12 17.77l-6.18 3.25L7 14.14 2 9.27l6.91-1.01L12 2z"/></symbol><use xlink:href="#shortcut" y="1674.667" width="24" height="24"/><view id="shortcut-view" viewBox="0 1674.667 24 24"/><symbol id="user" viewBox="0 0 24 24"><path fill="none" clip-rule="evenodd" d="M12 13a4 4 0 100-8 4 4 0 000 8z" stroke="#000" stroke-width="2" stroke-linecap="round" stroke-linejoin="round"/><path fill="none" d="M5.25 20v-.667C5.25 17 9.314 16 12.25 16s7 1 7 3.333V20" stroke="#000" stroke-width="2" stroke-linecap="round" stroke-linejoin="round"/><path fill="none" d="M23 12c0 6.075-4.925 11-11 11S1 18.075 1 12 5.925 1 12 1s11 4.925 11 11z" stroke="#000" stroke-width="2" stroke-linecap="round" stroke-linejoin="round"/></symbol><use xlink:href="#user" y="1698.667" width="24" height="24"/><view id="user-view" viewBox="0 1698.667 24 24"/><symbol id="appearance" viewBox="0 0 24 24"><path fill="none" d="M9 7.75h10m0-3.673v-2.02c0-.445-.448-.807-1-.807H6c-.552 0-1 .362-1 .808v8.077c.004 2.175 1.562 4.153 4 5.077v4.615c0 1.338 1.343 2.423 3 2.423s3-1.085 3-2.423v-4.615c2.438-.924 3.997-2.902 4-5.077V7.75" stroke="currentColor" stroke-width="2.25" stroke-linecap="round" stroke-linejoin="round"/></symbol><use xlink:href="#appearance" y="1722.667" width="24" height="24"/><view id="appearance-view" viewBox="0 1722.667 24 24"/><symbol id="bat" viewBox="0 0 24 24"><g fill="none" stroke="currentColor" stroke-width="2.25" stroke-linecap="round" stroke-linejoin="round"><rect x="3" y="4" width="18" height="18" rx="2" ry="2"/><path d="M16 2v4M8 2v4m-5 4h18"/></g></symbol><use xlink:href="#bat" y="1746.667" width="24" height="24"/><view id="bat-view" viewBox="0 1746.667 24 24"/><symbol id="commerce" viewBox="0 0 24 24"><circle fill="none" stroke="currentColor" stroke-width="2.25" stroke-linecap="round" stroke-linejoin="round" cx="9" cy="21" r="1"/><circle fill="none" stroke="currentColor" stroke-width="2.25" stroke-linecap="round" stroke-linejoin="round" cx="20" cy="21" r="1"/><path fill="none" stroke="currentColor" stroke-width="2.25" stroke-linecap="round" stroke-linejoin="round" d="M1 1h4l2.68 13.39a2 2 0 002 1.61h9.72a2 2 0 002-1.61L23 6H6"/></symbol><use xlink:href="#commerce" y="1770.667" width="24" height="24"/><view id="commerce-view" viewBox="0 1770.667 24 24"/><symbol id="config" viewBox="0 0 24 24"><circle fill="none" stroke="currentColor" stroke-width="2.25" stroke-linecap="round" stroke-linejoin="round" cx="12" cy="12" r="3"/><path fill="none" stroke="currentColor" stroke-width="2.25" stroke-linecap="round" stroke-linejoin="round" d="M19.4 15a1.65 1.65 0 00.33 1.82l.06.06a2 2 0 010 2.83 2 2 0 01-2.83 0l-.06-.06a1.65 1.65 0 00-1.82-.33 1.65 1.65 0 00-1 1.51V21a2 2 0 01-2 2 2 2 0 01-2-2v-.09A1.65 1.65 0 009 19.4a1.65 1.65 0 00-1.82.33l-.06.06a2 2 0 01-2.83 0 2 2 0 010-2.83l.06-.06a1.65 1.65 0 00.33-1.82 1.65 1.65 0 00-1.51-1H3a2 2 0 01-2-2 2 2 0 012-2h.09A1.65 1.65 0 004.6 9a1.65 1.65 0 00-.33-1.82l-.06-.06a2 2 0 010-2.83 2 2 0 012.83 0l.06.06a1.65 1.65 0 001.82.33H9a1.65 1.65 0 001-1.51V3a2 2 0 012-2 2 2 0 012 2v.09a1.65 1.65 0 001 1.51 1.65 1.65 0 001.82-.33l.06-.06a2 2 0 012.83 0 2 2 0 010 2.83l-.06.06a1.65 1.65 0 00-.33 1.82V9a1.65 1.65 0 001.51 1H21a2 2 0 012 2 2 2 0 01-2 2h-.09a1.65 1.65 0 00-1.51 1z"/></symbol><use xlink:href="#config" y="1794.667" width="24" height="24"/><view id="config-view" viewBox="0 1794.667 24 24"/><symbol id="content" viewBox="0 0 24 24"><path d="M3.667 23h16.666C21.444 23 22 22.436 22 21.308V2.692C22 1.758 21.254 1 20.333 1H3.667C2.747 1 2 1.758 2 2.692v18.616C2 22.242 2.746 23 3.667 23zM7 17h5m-5-5h10M7 7h10" fill="none" stroke="currentColor" stroke-width="2.25" stroke-linecap="round" stroke-linejoin="round"/></symbol><use xlink:href="#content" y="1818.667" width="24" height="24"/><view id="content-view" viewBox="0 1818.667 24 24"/><symbol id="edit" viewBox="0 0 24 24"><path fill="none" clip-rule="evenodd" d="M13.045 14.136l-3.712.531.53-3.713 9.546-9.546a2.25 2.25 0 113.182 3.182l-9.546 9.546z" stroke="#000" stroke-width="2.25" stroke-linecap="round" stroke-linejoin="round"/><path fill="none" d="M18.75 14.25v7.5a1.5 1.5 0 01-1.5 1.5h-15a1.5 1.5 0 01-1.5-1.5v-15a1.5 1.5 0 011.5-1.5h7.5" stroke="#000" stroke-width="2.25" stroke-linecap="round" stroke-linejoin="round"/></symbol><use xlink:href="#edit" y="1842.667" width="24" height="24"/><view id="edit-view" viewBox="0 1842.667 24 24"/><symbol id="extend" viewBox="0 0 24 24"><path fill="none" d="M19.765 22.719l-8.151-.002H3.462a1.46 1.46 0 01-1.46-1.46v-3.913c1.526.621 3.278 1.157 4.278-.152 1-1.308 1-3.124 0-4.432-1-1.309-2.752-.772-4.277-.151L2 9.693c0-.807.654-2.46 1.46-2.46h5.654C7.688 5.806 6.606 4.495 8.032 3.069c1.426-1.425 5.737-1.425 7.163 0 1.425 1.426.412 2.737-1.014 4.163h5.585c.806 0 1.46 1.653 1.46 2.459l-.004 2.916c-1.525-.62-3.277-1.157-4.277.152a3.65 3.65 0 000 4.433c1 1.308 2.751.772 4.276.15l.004 3.917a1.46 1.46 0 01-1.46 1.46z" stroke="#000" stroke-width="2.25" stroke-linecap="round" stroke-linejoin="round"/></symbol><use xlink:href="#extend" y="1866.667" width="24" height="24"/><view id="extend-view" viewBox="0 1866.667 24 24"/><symbol id="fallback" viewBox="0 0 24 24"><rect fill="none" stroke="currentColor" stroke-width="2.25" stroke-linecap="round" x="3" y="3" width="18" height="18" rx="2" ry="2"/></symbol><use xlink:href="#fallback" y="1890.667" width="24" height="24"/><view id="fallback-view" viewBox="0 1890.667 24 24"/><symbol id="group" viewBox="0 0 24 24"><path fill="none" d="M4 19.5A2.5 2.5 0 016.5 17H20M4 14.5A2.5 2.5 0 016.5 12H20" stroke="#000" stroke-width="2.25" stroke-linecap="round" stroke-linejoin="round"/><path fill="none" d="M6.5 2H20v20H6.5A2.5 2.5 0 014 19.5v-15A2.5 2.5 0 016.5 2v0z" stroke="#000" stroke-width="2.25" stroke-linecap="round" stroke-linejoin="round"/></symbol><use xlink:href="#group" y="1914.667" width="24" height="24"/><view id="group-view" viewBox="0 1914.667 24 24"/><symbol id="hamburger" viewBox="0 0 24 24"><path fill="none" stroke="currentColor" stroke-width="2.25" stroke-linecap="round" stroke-linejoin="round" d="M3 12h18M3 6h18M3 18h18"/></symbol><use xlink:href="#hamburger" y="1938.667" width="24" height="24"/><view id="hamburger-view" viewBox="0 1938.667 24 24"/><symbol id="help" viewBox="0 0 24 24"><path fill="none" d="M23 12c0 6.075-4.925 11-11 11S1 18.075 1 12 5.925 1 12 1s11 4.925 11 11z" stroke="#000" stroke-width="2.25" stroke-linecap="round" stroke-linejoin="round"/><path fill="none" d="M9.09 8a3 3 0 015.83 1c0 2-3 3-3 3" stroke="#000" stroke-width="2.25" stroke-linecap="round" stroke-linejoin="round"/><path fill="none" d="M12 17h.01" stroke="#000" stroke-width="3" stroke-linecap="round" stroke-linejoin="round"/></symbol><use xlink:href="#help" y="1962.667" width="24" height="24"/><view id="help-view" viewBox="0 1962.667 24 24"/><symbol id="nav-toggle-toleft" viewBox="0 0 24 24"><path fill="none" stroke="currentColor" stroke-width="2.25" stroke-linecap="round" stroke-linejoin="round" d="M19 12H5m7 7l-7-7 7-7"/></symbol><use xlink:href="#nav-toggle-toleft" y="1986.667" width="24" height="24"/><view id="nav-toggle-toleft-view" viewBox="0 1986.667 24 24"/><symbol id="nav-toggle-totop" viewBox="0 0 24 24"><path fill="none" stroke="currentColor" stroke-width="2.25" stroke-linecap="round" stroke-linejoin="round" d="M12 19V5m-7 7l7-7 7 7"/></symbol><use xlink:href="#nav-toggle-totop" y="2010.667" width="24" height="24"/><view id="nav-toggle-totop-view" viewBox="0 2010.667 24 24"/><symbol id="people" viewBox="0 0 24 24"><path fill="none" clip-rule="evenodd" d="M12 12.5a5.5 5.5 0 100-11 5.5 5.5 0 000 11z" stroke="#000" stroke-width="2.25" stroke-linecap="round" stroke-linejoin="round"/><path fill="none" d="M1.5 22v-1c0-3.5 6.096-5 10.5-5s10.5 1.5 10.5 5v1m0 0s-6.395.5-10.5.5S1.5 22 1.5 22" stroke="#000" stroke-width="2.25" stroke-linecap="round" stroke-linejoin="round"/></symbol><use xlink:href="#people" y="2034.667" width="24" height="24"/><view id="people-view" viewBox="0 2034.667 24 24"/><symbol id="reports" viewBox="0 0 24 24"><path fill="none" d="M5.75 14.5v6.991c.001.268-.199.518-.532.667-1.04.462-2.395.462-3.436 0-.333-.149-.533-.4-.532-.667V14.5m4.5 0c0-.828-1.007-1.5-2.25-1.5s-2.25.672-2.25 1.5m13-11.5v17.985a1.2 1.2 0 01-.532 1 3.1 3.1 0 01-3.436 0 1.2 1.2 0 01-.532-1V3m4.5 0c0-.828-1.007-1.5-2.25-1.5S9.75 2.172 9.75 3m13 4.5V9m-4.5-1.5v13.557c-.001.383.199.74.532.953a3.23 3.23 0 003.436 0 1.13 1.13 0 00.532-.953V12.5m0-5c0-.828-1.007-1.5-2.25-1.5s-2.25.672-2.25 1.5" stroke="#000" stroke-width="2.25" stroke-linecap="round" stroke-linejoin="round"/></symbol><use xlink:href="#reports" y="2058.667" width="24" height="24"/><view id="reports-view" viewBox="0 2058.667 24 24"/><symbol id="structure" viewBox="0 0 24 24"><path fill="none" d="M12.928 1.486a2 2 0 00-1.856 0L1.5 6.5l9.572 5.014a2 2 0 001.856 0L22.5 6.5l-9.572-5.014zM1.5 12l9.572 5.014a2 2 0 001.856 0L22.5 12m-21 5.5l9.572 5.014a2 2 0 001.856 0L22.5 17.5" stroke="#000" stroke-width="2.25" stroke-linecap="round" stroke-linejoin="round"/></symbol><use xlink:href="#structure" y="2082.667" width="24" height="24"/><view id="structure-view" viewBox="0 2082.667 24 24"/><symbol id="tmgmt" viewBox="0 0 24 24"><circle fill="none" stroke="currentColor" stroke-width="2.25" stroke-linecap="round" stroke-linejoin="round" cx="12" cy="12" r="10"/><path fill="none" stroke="currentColor" stroke-width="2.25" stroke-linecap="round" stroke-linejoin="round" d="M2 12h20M12 2a15.3 15.3 0 014 10 15.3 15.3 0 01-4 10 15.3 15.3 0 01-4-10 15.3 15.3 0 014-10z"/></symbol><use xlink:href="#tmgmt" y="2106.667" width="24" height="24"/><view id="tmgmt-view" viewBox="0 2106.667 24 24"/><symbol id="webform" viewBox="0 0 24 24"><path d="M12 16a4 4 0 100-8 4 4 0 000 8z" stroke="currentColor" stroke-width="2.25" stroke-linecap="round" stroke-linejoin="round" fill="none"/><path d="M16 8v5a3 3 0 006 0v-1a10 10 0 10-3.92 7.94" stroke="currentColor" stroke-width="2.25" stroke-linecap="round" stroke-linejoin="round" fill="none"/></symbol><use xlink:href="#webform" y="2130.667" width="24" height="24"/><view id="webform-view" viewBox="0 2130.667 24 24"/></svg>